<?xml version="1.0" encoding="UTF-8" standalone="no"?>
<!DOCTYPE svg PUBLIC "-//W3C//DTD SVG 1.1//EN" "http://www.w3.org/Graphics/SVG/1.1/DTD/svg11.dtd">
<svg width="100%" height="100%" viewBox="0 0 2000 2000" version="1.1" xmlns="http://www.w3.org/2000/svg" xmlns:xlink="http://www.w3.org/1999/xlink" xml:space="preserve" xmlns:serif="http://www.serif.com/" style="fill-rule:evenodd;clip-rule:evenodd;stroke-linecap:round;stroke-linejoin:round;stroke-miterlimit:1.5;">
    <g transform="matrix(1.179343,0,0,1.179343,-900.26712,581.615854)">
        <circle cx="1338.7" cy="523.593" r="77.655" style="fill:rgb(198,76,195);stroke:rgb(61,51,71);stroke-width:8.83px;"/>
    </g>
    <g transform="matrix(1.179343,0,0,1.179343,-267.196992,-166.830115)">
        <path d="M1138.318,538.978C1150.768,541.508 1163.103,534.169 1166.821,522.021C1203.579,402.089 1248.245,320.945 1294.998,332.757C2106.877,537.889 2100.759,1212.806 1450.078,1098.464C1409.04,1091.252 1431.698,1045.815 1474.615,1042.732C1541.141,1041.929 1591.286,1038.026 1617.273,1025.77C1740.413,967.695 1754.453,829.578 1631.812,868.267C1330.89,963.199 1253.635,1447.434 1255.126,1556.565C1255.947,1563.838 1254.281,1584.935 1235.533,1571.932C1183.773,1536.036 1181.437,1555.029 1162.13,1633.962C1157.8,1651.667 1136.606,1651.541 1132.837,1633.708C1125.855,1600.674 1114.338,1583.088 1074.494,1583.088C1034.649,1583.088 1023.132,1600.674 1016.151,1633.708C1012.382,1651.541 991.188,1651.667 986.857,1633.962C967.55,1555.029 965.214,1536.036 913.454,1571.932C894.706,1584.935 893.041,1563.838 893.862,1556.565C895.352,1447.434 818.098,963.199 517.176,868.267C401.428,831.752 408.575,967.695 531.715,1025.77C557.701,1038.026 607.846,1041.929 674.372,1042.732C717.29,1045.815 739.948,1091.252 698.91,1098.464C48.228,1212.806 42.11,537.889 853.99,332.757C900.742,320.945 945.409,402.089 982.17,522.02C985.886,534.167 998.22,541.505 1010.669,538.975C1031.286,534.742 1052.632,532.517 1074.494,532.517C1096.356,532.517 1117.702,534.742 1138.318,538.978ZM1060.939,1164.186C1052.025,1163.809 1043.602,1168.276 1038.913,1175.866C979.01,1272.812 990.548,1332.638 1055.596,1290.218C1067.131,1282.897 1081.857,1282.897 1093.391,1290.218C1158.44,1332.638 1169.977,1272.812 1110.076,1175.866C1105.386,1168.275 1096.963,1163.808 1088.048,1164.185C1083.554,1164.376 1079.035,1164.472 1074.494,1164.472C1069.953,1164.472 1065.434,1164.376 1060.939,1164.186ZM1156.803,556.331C1130.624,548.96 1103.016,545.017 1074.494,545.017C1045.972,545.017 1018.363,548.96 992.185,556.331C1040.21,728.916 1072.555,964.195 1074.494,1125.118C1067.504,1134.06 1061.029,1142.82 1055.06,1151.359C1061.486,1151.766 1067.966,1151.972 1074.494,1151.972C1081.022,1151.972 1087.502,1151.766 1093.927,1151.359C1087.958,1142.82 1081.484,1134.06 1074.494,1125.118C1076.433,964.195 1108.777,728.916 1156.803,556.331Z" style="fill:rgb(61,51,71);"/>
    </g>
    <g transform="matrix(1.179343,0,0,1.179343,-267.196992,-166.830115)">
        <circle cx="1074.494" cy="848.495" r="309.728" style="fill:rgb(116,95,202);"/>
        <clipPath id="_clip1">
            <circle cx="1074.494" cy="848.495" r="309.728"/>
        </clipPath>
        <g clip-path="url(#_clip1)">
            <g transform="matrix(1,0,0,1,74.493751,-10.610289)">
                <path d="M813.062,766.497C818.504,751.991 838.213,752.846 836.144,761.17C834.349,768.396 858.39,747.847 858.783,758.063C858.835,759.423 859.325,772.169 856.563,774.931C853.466,778.028 860.918,775.481 862.334,781.145C863.777,786.918 867.12,785.412 867.66,791.355C868.962,805.671 865.383,816.914 871.655,821.095C873.901,822.592 873.631,823.221 871.655,854.83C871.223,861.749 857.321,892.3 865.441,908.541C867.218,912.095 868.023,910.559 868.104,910.316C869.127,907.249 868.586,904.665 871.211,906.765C872.21,907.564 880.425,919.717 879.201,935.618C878.348,946.706 877.955,946.915 878.757,947.603C885.202,953.127 894.411,980.635 892.518,991.992C892.277,993.436 894.176,993.061 896.957,1009.747C897.595,1013.576 903.75,1017.679 904.503,1018.181C914.912,1025.12 907.945,1040.626 923.59,1052.36C931.127,1058.013 937.204,1067.882 924.034,1066.565C922.136,1066.375 916.883,1059.495 906.278,1066.565C904.891,1067.49 897.826,1070.695 895.625,1069.228C894.274,1068.327 894.252,1068.533 883.061,1065.136C885.523,1070.514 885.391,1070.535 890.742,1075.886C890.844,1075.988 884.784,1085.639 871.655,1069.228C870.896,1068.279 860.521,1059.27 858.783,1058.575C858.618,1058.509 848.675,1062.308 842.803,1060.35C841.354,1059.867 830.134,1050.447 828.154,1047.477C824.233,1041.595 822.662,1036.049 821.496,1033.717C821.197,1033.12 821.178,1033.399 820.608,1032.829C819.658,1031.879 818.937,1030.581 819.277,1031.941C825.274,1055.931 790.682,1024.338 788.648,1021.288C783.701,1013.867 775.589,1018.555 774.888,1019.956C774.124,1021.485 766.932,1019.17 766.01,1016.405C762.615,1006.219 765.392,1002.616 754.913,1000.869C752.121,1000.404 755.422,997.892 740.709,968.466C739.728,966.505 736.232,963.279 734.938,952.929C734.202,947.039 739.135,949.984 739.377,948.934C739.52,948.313 739.342,948.345 738.909,940.981C754.275,939.602 747.586,932.499 743.816,917.419C741.857,909.583 739.326,909.061 743.816,902.326C745.338,900.043 744.634,899.733 746.479,897.887C772.29,872.077 764.055,831.484 767.786,827.753C778.986,816.553 770.907,795.235 791.756,790.023C792.596,789.813 810.139,778.188 813.062,766.497Z" style="fill:rgb(132,192,201);"/>
                <path d="M735.864,945.937C735.784,944.822 735.682,943.275 735.559,941.178C735.452,939.367 736.803,937.8 738.609,937.638C740.925,937.43 742.651,937.109 743.892,936.579C744.451,936.341 744.872,936.126 745.057,935.733C745.443,934.913 745.173,933.875 744.874,932.592C744.033,928.981 742.062,924.243 740.56,918.233C739.79,915.153 738.925,913.225 738.453,911.594C737.495,908.29 737.447,905.829 741.023,900.465C741.799,899.301 741.871,898.729 742.161,898.129C742.508,897.411 742.982,896.638 744.106,895.514C761.451,878.169 762.597,853.807 763.062,839.56C763.215,834.87 763.311,831.174 763.742,828.973C764.088,827.209 764.751,826.042 765.412,825.38C767.817,822.976 769.139,820.002 770.121,816.864C771.251,813.252 771.93,809.418 772.911,805.771C775.17,797.379 778.883,789.922 790.563,786.864C790.614,786.834 790.669,786.801 790.719,786.77C792.696,785.554 798.415,781.493 803.216,776.292C806.2,773.059 808.877,769.398 809.806,765.683C809.837,765.559 809.875,765.437 809.92,765.318C814.535,753.016 827.781,750.14 834.357,752.796C837.155,753.927 839.026,755.857 839.537,758.383C841.165,757.604 843.122,756.517 845.126,755.501C849.203,753.435 853.461,751.714 856.212,751.802C856.987,751.827 857.69,751.962 858.317,752.188L859.396,752.71L860.383,753.495L861.172,754.496L861.709,755.613C861.943,756.26 862.102,757.027 862.136,757.934C862.175,758.939 862.425,765.834 861.581,770.88C861.352,772.246 861.012,773.491 860.594,774.549C862.624,775.428 864.754,776.989 865.59,780.331C866.257,783 867.564,783.575 868.503,784.657C869.663,785.994 870.694,787.656 871.003,791.051C871.663,798.313 871.097,804.795 871.15,809.992C871.169,811.797 871.26,813.425 871.558,814.845C871.867,816.321 872.369,817.537 873.517,818.302C873.887,818.549 874.211,818.79 874.502,819.057L875.269,819.919C875.86,820.741 876.398,821.925 876.544,824.307C876.765,827.894 876.207,835.815 875.005,855.04C874.784,858.581 871.18,868.187 868.606,878.969C866.607,887.34 865.151,896.505 867.162,903.684L867.43,903.395L868.645,902.802L869.77,902.646L871.142,902.88C871.695,903.066 872.422,903.435 873.308,904.144C873.698,904.456 875.051,906.017 876.546,908.721C879.426,913.93 883.468,923.917 882.548,935.875C882.126,941.355 881.848,944.547 881.734,945.814C884.402,948.627 887.501,954.368 890.069,961.155C894.039,971.644 896.866,984.579 895.921,991.916C896.476,993.081 898.334,997.597 900.268,1009.195C900.426,1010.148 901.266,1011.043 902.088,1011.896C903.841,1013.714 905.965,1015.122 906.365,1015.388C911.279,1018.664 913.099,1023.449 914.472,1029.029C916.063,1035.499 917.038,1043.251 925.604,1049.675C929.918,1052.911 933.688,1057.441 934.738,1060.925C935.492,1063.424 935.109,1065.603 933.786,1067.249C932.4,1068.972 929.363,1070.471 923.7,1069.904C922.992,1069.833 921.958,1069.434 920.719,1068.673C919.692,1068.041 918.224,1067.033 916.168,1066.789C914.083,1066.542 911.468,1067.139 908.14,1069.357C907.003,1070.115 902.616,1072.201 899.198,1072.783C896.924,1073.171 894.963,1072.821 893.763,1072.021C893.027,1071.529 892.703,1071.434 890.449,1070.798C891.133,1071.524 891.992,1072.389 893.116,1073.513L893.596,1074.119L893.963,1074.941L894.099,1075.98L893.947,1076.897L893.404,1077.993C893.216,1078.275 892.911,1078.682 892.477,1079.134C891.312,1080.346 889.162,1081.938 885.981,1082.134C882.274,1082.362 876.464,1080.612 869.034,1071.325C868.534,1070.7 863.568,1066.399 860.093,1063.627C859.477,1063.135 858.783,1062.622 858.253,1062.238C856.544,1062.759 853.619,1063.587 850.528,1064.002C847.481,1064.41 844.294,1064.385 841.741,1063.534C841.186,1063.349 839.429,1062.252 837.283,1060.543C833.098,1057.21 826.841,1051.558 825.362,1049.339C823.703,1046.85 822.448,1044.423 821.463,1042.26C821.46,1042.264 821.456,1042.268 821.453,1042.271C820.015,1043.815 817.897,1044.526 815.186,1044.115C811.521,1043.558 806.156,1040.496 801.026,1036.702C793.689,1031.277 786.761,1024.508 785.856,1023.15C783.089,1018.999 777.578,1021.927 777.578,1021.927C777.578,1021.927 777.83,1021.578 777.89,1021.457L776.996,1022.631L775.975,1023.31L774.347,1023.758C773.783,1023.822 773.105,1023.813 772.356,1023.712C770.136,1023.411 767.102,1022.213 765.19,1020.664C763.997,1019.698 763.193,1018.568 762.826,1017.467C761.76,1014.267 761.268,1011.689 760.816,1009.597C760.475,1008.021 760.336,1006.804 759.489,1005.946C758.58,1005.026 757.022,1004.623 754.361,1004.18L752.678,1003.62L751.516,1002.709L750.778,1001.659C750.588,1001.305 750.4,1000.86 750.209,1000.284C749.308,997.572 747.857,990.268 737.707,969.967C736.659,967.872 732.99,964.402 731.608,953.346C731.154,949.718 732.337,947.961 733.465,947.006L734.788,946.196L735.864,945.937ZM738.27,952.521C739.476,962.158 742.798,965.138 743.711,966.964C752.107,983.757 754.734,991.954 755.931,995.995C756.127,996.655 756.317,997.281 756.457,997.737C760.655,998.555 762.955,999.822 764.436,1001.407C765.619,1002.674 766.354,1004.2 766.891,1006.147C767.497,1008.346 767.851,1011.264 769.141,1015.183C769.266,1015.291 769.757,1015.712 770.102,1015.914C770.926,1016.397 772.363,1016.788 773.117,1016.972C773.778,1016.368 774.677,1015.721 775.797,1015.19C779.825,1013.282 786.692,1012.302 791.441,1019.426C792.587,1021.145 804.79,1032.449 813.112,1036.402C814.284,1036.958 815.876,1037.314 816.531,1037.446C816.575,1037.162 816.625,1036.75 816.614,1036.399C816.581,1035.408 816.382,1034.203 816.02,1032.755L815.847,1031.157L816.168,1029.948L817.065,1028.786L817.841,1028.299L818.697,1028.04L819.992,1028.08L820.996,1028.479L821.891,1029.206C822.133,1029.462 822.528,1030.002 822.982,1030.456C822.935,1030.41 822.903,1030.397 822.881,1030.383L823.765,1031.113L824.498,1032.216C825.632,1034.484 827.132,1039.893 830.947,1045.616C832.239,1047.554 837.809,1052.381 841.465,1055.292C842.555,1056.161 843.783,1057.027 844.077,1057.233C845.715,1057.715 847.72,1057.605 849.635,1057.348C853.175,1056.873 856.464,1055.762 857.465,1055.454L858.677,1055.219L860.029,1055.458C860.672,1055.715 862.326,1056.821 864.279,1058.379C868.193,1061.501 873.713,1066.427 874.276,1067.131C879.283,1073.39 882.921,1074.884 885.158,1074.983C882.456,1072.096 882.068,1071.03 880.01,1066.534C879.46,1065.333 879.665,1063.922 880.534,1062.928C881.402,1061.934 882.773,1061.541 884.036,1061.925C895.143,1065.297 895.97,1065.462 897.177,1066.232C897.497,1066.203 898.456,1066.107 899.073,1065.945C901.291,1065.361 903.718,1064.238 904.417,1063.772C909.029,1060.697 912.837,1059.907 915.887,1060.037C919.918,1060.209 924.041,1062.784 924.773,1063.262C925.865,1063.353 926.782,1063.352 927.541,1063.254C927.798,1063.22 928.095,1063.139 928.313,1063.071C928.166,1062.623 927.857,1061.758 927.486,1061.164C926.171,1059.059 923.947,1056.823 921.576,1055.045C912.953,1048.578 910.492,1041.114 908.822,1034.268C908.237,1031.871 907.76,1029.565 907.068,1027.448C906.229,1024.877 905.081,1022.6 902.641,1020.974C902.137,1020.637 899.467,1018.849 897.255,1016.554C895.432,1014.663 893.998,1012.411 893.646,1010.299C891.507,997.464 889.921,995.125 889.487,993.993L889.184,992.846L889.207,991.44C890.277,985.019 887.431,973.148 883.791,963.531C881.469,957.394 878.898,952.144 876.573,950.151L875.566,948.962L875.222,948.199L875.001,947.161C874.889,946.111 875.225,943.544 875.855,935.36C876.632,925.262 873.289,916.798 870.82,912.24L870.595,912.654L869.452,913.661L868.418,914.089L867.177,914.201L865.93,913.912L864.562,913.053C864.004,912.559 863.255,911.674 862.439,910.042C858.906,902.977 859.029,893.432 860.691,884.027C862.954,871.214 868.049,858.722 868.305,854.621C869.287,838.919 869.848,830.912 869.882,826.644C869.891,825.435 869.78,824.3 869.728,823.844C866.45,821.625 864.963,818.055 864.569,813.216C864.121,807.708 865.097,800.236 864.318,791.658C864.103,789.298 863.132,788.76 862.254,787.844C861.062,786.601 859.855,785.07 859.077,781.959C858.769,780.726 857.675,780.539 856.945,780.334C855.937,780.05 855.081,779.797 854.557,779.509L853.729,778.922L853.123,778.229L852.703,777.423L852.482,776.495L852.514,775.441L852.901,774.262L853.395,773.465C853.592,773.199 853.851,772.896 854.19,772.557C854.425,772.322 854.484,771.866 854.621,771.364C854.9,770.341 855.084,769.12 855.214,767.85C855.592,764.159 855.494,760.085 855.445,758.632C854.789,758.756 853.765,758.976 852.996,759.269C849.245,760.698 844.736,763.378 841.547,764.815C839.988,765.518 838.644,765.949 837.684,766.061L836.402,766.069L835.337,765.81L834.055,765.033L833.105,763.755L832.704,762.19L832.887,760.361C833.036,759.761 832.619,759.385 832.093,759.131C831.526,758.857 830.846,758.691 830.103,758.607C825.533,758.089 818.925,760.665 816.267,767.512L816.266,767.516C814.273,775.094 806.86,782.737 800.903,787.615C797.777,790.175 795.1,791.978 793.974,792.646L792.57,793.279C781.678,796.002 780.15,804.003 778.327,811.891C776.819,818.417 775.158,824.939 770.437,829.844C770.375,830.134 770.211,830.931 770.143,831.605C769.938,833.642 769.88,836.438 769.771,839.779C769.267,855.212 767.642,881.471 748.853,900.261C748.045,901.068 748.06,901.43 747.791,902.049C747.547,902.61 747.212,903.283 746.609,904.188C745.446,905.932 744.817,907.064 744.687,908.111C744.572,909.031 744.906,909.814 745.274,910.876C745.785,912.348 746.454,914.131 747.072,916.604C748.669,922.994 750.778,927.966 751.547,931.685C752.316,935.397 751.839,938.22 749.986,940.342C748.648,941.874 746.322,943.162 742.445,943.887C742.758,949.03 742.784,949.096 742.647,949.689L742.293,950.62L741.674,951.443L741.094,951.912L740.288,952.309L739.007,952.541C738.846,952.547 738.564,952.536 738.27,952.521Z" style="fill:rgb(61,51,71);"/>
                <path d="M1231.123,743.113C1221.069,753.166 1214.234,738.776 1202.745,742.606C1188.95,747.204 1202.143,762.596 1203.252,763.889C1195.648,779.096 1188.767,757.597 1182.982,763.382C1179.144,767.22 1177.112,762.157 1173.354,765.916C1163.889,775.38 1146.666,748.347 1144.469,765.916C1143.928,770.25 1147.49,775.057 1142.949,779.598C1142.318,780.229 1141.981,777.791 1131.801,780.105C1131.646,780.14 1136.898,796.336 1126.733,791.253C1112.562,784.168 1112.007,788.575 1109.441,790.303C1110.905,800.553 1110.73,800.816 1104.943,809.496C1103.699,811.363 1103.598,811.599 1106.97,852.062C1107.564,859.191 1106.819,882.906 1113.558,878.413C1117.358,875.88 1121.32,851.612 1127.24,872.332C1129.624,880.675 1125.857,900.014 1132.814,900.71C1138.739,901.302 1140.723,899.606 1143.456,907.804C1143.89,909.106 1145.483,913.885 1137.882,924.02C1134.057,929.12 1111.912,928.329 1120.652,945.81C1124.447,953.399 1138.362,945.33 1139.402,944.29C1140.182,943.51 1140.869,944.37 1142.949,941.249C1152.548,926.851 1164.473,936.208 1168.286,928.581C1171.391,922.372 1188.962,926.349 1182.982,944.29C1179.894,953.555 1172.33,948.901 1169.807,961.519C1169.132,964.893 1166.032,964.383 1167.78,969.627C1168.46,971.67 1180.265,977.777 1186.529,958.985C1190.445,947.237 1190.808,946.917 1197.171,944.797C1209.279,940.761 1204.446,964.296 1209.839,965.066C1223.097,966.96 1237.672,933.927 1239.231,943.276C1240.803,952.712 1238.414,960.582 1246.325,954.931C1247.253,954.268 1265.626,936.92 1267.101,936.182C1274.956,932.255 1267.176,928.365 1266.595,928.074C1266.27,927.101 1263.352,918.345 1270.649,915.912C1276.591,913.931 1280.039,927.298 1290.412,916.926C1296.881,916.002 1298.692,912.247 1307.134,898.176C1309.163,894.795 1307.654,894.321 1318.339,850.176C1305.764,844.572 1302.991,839.185 1289.398,845.982C1278.508,851.427 1281.279,838.885 1269.128,836.86C1266.709,836.457 1278.049,832.808 1270.142,826.219C1264.162,821.235 1265.685,817.84 1273.327,816.566C1288.633,787.918 1257.092,792.262 1252.406,773.517C1250.827,767.201 1243.495,747.018 1233.656,742.099" style="fill:rgb(132,192,201);"/>
                <path d="M1129.525,788.746C1129.589,788.172 1129.67,787.257 1129.618,786.621C1129.548,785.762 1129.411,784.898 1129.262,784.119C1128.923,782.342 1128.526,780.936 1128.484,780.665L1128.518,779.4L1128.793,778.613L1129.344,777.817L1130.069,777.229L1131.057,776.832C1136.393,775.619 1139.674,775.658 1141.519,775.922C1142.165,774.575 1141.929,773.196 1141.7,771.864C1141.327,769.693 1140.883,767.548 1141.139,765.5C1141.804,760.183 1143.934,757.869 1146.142,756.97C1148.317,756.084 1151.175,756.502 1154.327,758.033C1157.454,759.553 1161.1,762.162 1164.67,763.681C1166.948,764.65 1169.194,765.329 1170.981,763.543C1173.585,760.938 1175.744,760.869 1177.783,761.19C1178.196,761.255 1178.605,761.347 1179.015,761.434C1179.49,761.536 1179.983,761.635 1180.609,761.009C1181.148,760.469 1181.7,760.065 1182.25,759.765L1183.207,759.341L1184.215,759.088C1185.408,758.895 1186.63,759.061 1187.865,759.572C1189.394,760.205 1191.016,761.491 1192.642,762.92C1193.693,763.844 1194.759,764.831 1195.862,765.521C1196.355,765.83 1196.81,766.165 1197.325,766.074C1197.745,766.001 1198.095,765.641 1198.528,765.133C1198.756,764.865 1198.983,764.561 1199.21,764.218C1197.723,762.263 1195.536,759.062 1194.266,755.661C1192.873,751.933 1192.631,748.006 1194.486,744.785C1195.728,742.629 1197.928,740.673 1201.684,739.422C1207.186,737.588 1211.816,739.069 1216.139,740.947C1220.317,742.761 1224.095,745.393 1228.749,740.739C1229.436,740.052 1230.348,739.725 1231.249,739.759C1232.241,738.739 1233.817,738.427 1235.157,739.097C1239.579,741.308 1243.66,746.162 1246.947,751.766C1251.528,759.576 1254.673,768.747 1255.662,772.703C1256.638,776.607 1259.076,779.263 1261.889,781.493C1265.235,784.145 1269.107,786.23 1272.356,788.627C1276.313,791.546 1279.39,794.932 1280.449,799.655C1281.45,804.117 1280.65,809.983 1276.288,818.148C1275.797,819.067 1274.907,819.706 1273.879,819.877C1272.298,820.14 1270.647,820.852 1269.996,821.152C1270.086,821.318 1270.201,821.515 1270.311,821.66C1270.781,822.281 1271.445,822.936 1272.291,823.64C1275.121,825.999 1276.098,828.235 1276.302,830.082C1276.516,832.023 1275.913,833.75 1274.892,835.21C1277.627,836.596 1279.454,838.522 1280.979,840.395C1281.644,841.211 1282.237,842.012 1282.845,842.711C1283.314,843.25 1283.723,843.773 1284.363,843.939C1285.239,844.165 1286.302,843.777 1287.897,842.98C1293.326,840.265 1297.27,839.349 1300.683,839.455C1304.167,839.563 1307.16,840.737 1310.646,842.529C1313.165,843.825 1316.001,845.46 1319.705,847.111C1321.185,847.77 1321.982,849.392 1321.601,850.966C1314.13,881.834 1312.627,891.327 1311.703,895.403C1311.194,897.646 1310.793,898.602 1310.012,899.903C1305.667,907.145 1303.008,911.719 1300.624,914.615C1297.942,917.871 1295.503,919.372 1291.992,920.062C1289.005,922.82 1286.412,923.916 1284.203,924.195C1281.503,924.535 1279.19,923.713 1277.101,922.419C1275.886,921.666 1274.76,920.743 1273.651,919.967C1273.303,919.722 1272.959,919.496 1272.61,919.315C1272.317,919.164 1272.038,918.987 1271.71,919.096C1269.734,919.755 1269.192,921.306 1269.115,922.722C1269.051,923.896 1269.242,925.022 1269.437,925.835C1270.179,926.303 1271.094,926.959 1271.856,927.746C1272.64,928.556 1273.266,929.495 1273.613,930.487L1273.912,931.792L1273.886,933.244C1273.632,934.968 1272.485,937.187 1268.792,939.088C1268.463,939.365 1266.36,941.14 1264.39,942.921C1258.317,948.413 1248.937,957.19 1248.276,957.663C1244.349,960.467 1241.695,960.427 1240.199,959.739L1239.1,959.039L1238.287,958.167C1237.805,957.516 1237.402,956.645 1237.138,955.548C1236.691,953.695 1236.679,950.778 1236.372,947.423C1235.833,948.068 1235.261,948.781 1234.658,949.54C1231.034,954.104 1226.399,960.186 1221.507,964.087C1217.559,967.236 1213.371,968.961 1209.365,968.389L1208.296,968.117L1207.332,967.637L1206.201,966.682L1205.42,965.629C1204.326,963.818 1203.727,960.503 1203.215,956.91C1202.875,954.526 1202.529,951.999 1201.78,949.972C1201.418,948.99 1201.095,948.071 1200.272,947.769C1199.732,947.57 1199.071,947.701 1198.232,947.981C1196.276,948.633 1195.007,948.953 1194.056,949.813C1193.418,950.39 1192.976,951.223 1192.43,952.479C1191.665,954.238 1190.846,956.648 1189.713,960.047C1186.767,968.886 1182.54,972.864 1178.763,974.513C1174.355,976.438 1170.195,975.412 1167.745,974.034C1166.857,973.535 1166.169,972.976 1165.701,972.478L1165.007,971.573L1164.596,970.688C1163.179,966.438 1164.063,964.534 1165.102,962.994C1165.348,962.631 1165.623,962.291 1165.907,961.939C1166.133,961.659 1166.412,961.376 1166.515,960.861C1168.067,953.102 1171.254,950.71 1174.442,948.777C1176.438,947.567 1178.609,946.795 1179.798,943.228C1182.493,935.143 1179.444,930.626 1175.57,929.48C1174.485,929.158 1173.383,929.099 1172.453,929.349C1171.961,929.482 1171.496,929.667 1171.288,930.082C1169.175,934.31 1165.486,935.229 1160.701,935.538C1156.301,935.822 1150.634,935.772 1145.742,943.111C1143.641,946.263 1141.786,946.91 1141.321,947.028C1139.644,948.239 1134.252,951.35 1129.12,952.168C1124.308,952.934 1119.874,951.758 1117.65,947.311C1114.895,941.801 1114.826,937.695 1115.969,934.588C1117.156,931.363 1119.753,929.029 1122.975,927.311C1126.034,925.679 1129.671,924.607 1132.525,923.454C1133.682,922.987 1134.715,922.649 1135.197,922.006C1141.441,913.68 1140.628,909.935 1140.272,908.866C1139.495,906.534 1139.002,905.225 1138.182,904.59C1137.677,904.2 1137.064,904.296 1136.311,904.262C1135.227,904.213 1133.973,904.199 1132.48,904.05C1129.077,903.709 1126.714,901.083 1125.716,896.576C1124.96,893.166 1124.904,888.495 1124.85,883.902C1124.803,879.893 1124.783,875.95 1124.013,873.254C1123.498,871.451 1122.823,869.836 1122.299,868.711C1122.262,868.776 1122.227,868.84 1122.194,868.903C1121.489,870.229 1120.817,871.828 1120.16,873.377C1119.22,875.593 1118.292,877.714 1117.402,879.081C1116.756,880.074 1116.059,880.78 1115.42,881.206C1115.052,881.451 1114.695,881.647 1114.351,881.802L1113.133,882.208L1111.778,882.327L1110.412,882.084C1108.748,881.549 1107.118,879.949 1106.12,877.193C1103.912,871.098 1104.057,857.513 1103.626,852.341C1101.589,827.9 1100.818,818.038 1100.792,813.653C1100.766,809.399 1101.421,808.728 1102.151,807.634C1104.715,803.788 1106.13,801.86 1106.648,799.705C1107.16,797.572 1106.76,795.273 1106.118,790.778C1105.936,789.504 1106.499,788.238 1107.566,787.519C1108.102,787.158 1108.514,786.637 1109.044,786.181C1110.069,785.3 1111.295,784.527 1113.097,784.178C1115.681,783.677 1120.029,784.149 1128.234,788.251C1128.673,788.47 1129.164,788.638 1129.525,788.746ZM1233.248,745.73C1230.758,748.146 1228.385,749.339 1226.13,749.832C1222.72,750.576 1219.47,749.683 1216.165,748.284C1212.453,746.714 1208.65,744.175 1203.806,745.79C1202.042,746.378 1200.886,747.123 1200.302,748.136C1199.419,749.67 1199.89,751.536 1200.554,753.312C1202.085,757.411 1205.305,761.127 1205.8,761.705C1206.679,762.73 1206.858,764.182 1206.254,765.39C1203.588,770.722 1200.616,772.446 1198.084,772.745C1195.459,773.055 1192.79,771.777 1190.322,769.776C1188.995,768.701 1187.708,767.439 1186.455,766.496C1186.186,766.293 1185.92,766.108 1185.655,765.955C1185.562,765.901 1185.426,765.84 1185.317,765.793C1182.701,768.39 1180.536,768.474 1178.516,768.168C1178.092,768.104 1177.675,768.012 1177.258,767.922C1176.797,767.823 1176.321,767.696 1175.727,768.289C1172.972,771.044 1169.782,771.727 1166.389,771.177C1162.529,770.551 1158.305,768.01 1154.488,765.772C1152.941,764.865 1151.475,764.025 1150.144,763.526C1149.572,763.312 1149.095,763.015 1148.674,763.187C1148.496,763.259 1148.491,763.511 1148.382,763.779C1148.115,764.435 1147.932,765.279 1147.8,766.332C1147.56,768.251 1148.319,770.264 1148.545,772.311C1148.902,775.545 1148.499,778.795 1145.323,781.971L1144.469,782.614L1143.23,783.026L1142.415,783.051L1141.63,782.907C1141.134,782.765 1140.033,782.108 1135.821,782.746C1136.176,784.611 1136.486,786.913 1136.334,788.861C1136.124,791.555 1135.01,793.669 1133.231,794.748C1131.622,795.724 1129.053,796.165 1125.232,794.255C1119.263,791.27 1116.253,790.404 1114.373,790.768C1113.715,790.896 1113.354,791.285 1113.014,791.636C1113.629,796.234 1113.758,798.843 1113.175,801.272C1112.524,803.981 1110.959,806.524 1107.736,811.358C1107.468,811.76 1107.495,812.05 1107.504,813.613C1107.53,817.939 1108.306,827.669 1110.315,851.784C1110.665,855.984 1110.516,866.052 1111.791,872.479C1111.913,873.091 1112.124,873.778 1112.332,874.378C1112.508,874.057 1112.683,873.72 1112.822,873.416C1114.046,870.757 1115.332,867.323 1116.702,864.966C1118.067,862.619 1119.768,861.207 1121.268,860.823L1122.702,860.677L1124.141,860.969L1125.36,861.607L1126.323,862.434C1127.569,863.723 1129.052,866.455 1130.467,871.41C1131.939,876.561 1131.207,885.782 1131.873,892.492C1132.016,893.933 1132.223,895.234 1132.592,896.287C1132.704,896.606 1132.827,896.895 1132.981,897.141C1133.038,897.232 1133.045,897.36 1133.148,897.37C1135.339,897.589 1137.004,897.512 1138.37,897.705C1139.865,897.917 1141.123,898.379 1142.29,899.282C1143.778,900.434 1145.23,902.512 1146.64,906.743C1147.152,908.278 1149.532,914.08 1140.567,926.034C1139.68,927.217 1138.184,928.281 1136.23,929.17C1134.167,930.108 1131.493,930.933 1128.896,931.974C1126.037,933.12 1123.087,934.352 1122.211,937.075C1121.63,938.882 1122.091,941.183 1123.655,944.309C1124.472,945.944 1126.296,945.82 1128.064,945.539C1131.892,944.929 1137.119,941.824 1137.119,941.824L1137.029,941.917L1137.796,941.291L1138.533,940.896C1138.878,940.745 1139.259,940.733 1140.157,939.388C1145.762,930.98 1152.051,929.516 1157.49,929.033C1159.289,928.873 1160.977,928.85 1162.472,928.637C1163.654,928.468 1164.702,928.244 1165.284,927.08C1166.748,924.152 1170.114,922.376 1174.057,922.49C1178.698,922.625 1184.065,925.378 1186.411,931.159C1187.826,934.646 1188.168,939.346 1186.166,945.351C1184.586,950.091 1182.109,951.997 1179.477,953.593C1177.012,955.088 1174.307,956.133 1173.098,962.177C1172.771,963.812 1172.112,964.892 1171.398,965.818C1171.125,966.171 1170.806,966.446 1170.614,966.835C1170.477,967.112 1170.574,967.44 1170.761,967.977C1171.166,968.199 1172.243,968.744 1173.189,968.834C1176.445,969.145 1180.395,966.775 1183.345,957.924C1186.005,949.946 1187.453,946.734 1189.552,944.835C1191.075,943.457 1192.975,942.657 1196.109,941.612C1198.885,940.687 1201.08,940.851 1202.831,941.562C1204.566,942.267 1205.945,943.551 1206.982,945.305C1208.12,947.228 1208.84,949.811 1209.327,952.538C1209.809,955.231 1210.079,958.072 1210.566,960.287C1210.674,960.779 1210.888,961.395 1211.033,961.79C1212.231,961.777 1213.429,961.326 1214.631,960.667C1216.51,959.636 1218.353,958.077 1220.137,956.306C1226.34,950.147 1231.831,941.637 1234.872,939.421C1235.301,939.108 1235.711,938.871 1236.088,938.699L1237.18,938.341L1238.35,938.259L1239.659,938.56L1240.807,939.266L1241.594,940.155L1242.142,941.216C1242.301,941.626 1242.441,942.125 1242.541,942.725C1243.124,946.224 1243.188,949.513 1243.399,952.019C1243.419,952.261 1243.45,952.52 1243.486,952.773C1243.777,952.601 1244.085,952.406 1244.374,952.2C1245.106,951.677 1256.831,940.607 1262.243,935.834C1263.963,934.318 1265.231,933.365 1265.6,933.18C1266.086,932.937 1266.572,932.593 1266.905,932.338C1266.711,932.146 1266.483,931.932 1266.317,931.813C1265.742,931.4 1265.212,931.135 1265.094,931.076C1264.297,930.678 1263.692,929.98 1263.411,929.135C1263.212,928.54 1262.238,925.559 1262.412,922.359C1262.619,918.545 1264.266,914.502 1269.587,912.728C1272.421,911.783 1274.979,912.7 1277.504,914.47C1278.377,915.082 1279.259,915.795 1280.195,916.426C1281.057,917.008 1281.954,917.579 1283.054,917.557C1284.473,917.529 1286.004,916.586 1288.038,914.552C1288.552,914.039 1289.218,913.706 1289.937,913.603C1292.886,913.182 1294.466,911.853 1296.72,908.655C1298.664,905.896 1300.936,901.983 1304.256,896.449C1304.911,895.357 1305.033,894.618 1305.587,891.87C1306.585,886.925 1308.509,876.684 1314.433,852.056C1311.781,850.764 1309.58,849.53 1307.576,848.499C1305.077,847.214 1302.972,846.242 1300.474,846.164C1297.905,846.084 1294.985,846.941 1290.899,848.984C1287.263,850.802 1284.679,850.954 1282.682,850.437C1281.157,850.043 1279.882,849.238 1278.725,848.119C1277.815,847.239 1276.973,846.131 1276.037,844.96C1274.497,843.033 1272.593,840.84 1268.577,840.171L1267.669,839.919L1266.781,839.409L1266.234,838.878L1265.753,838.119L1265.449,837.04L1265.563,835.669L1265.975,834.737L1266.742,833.807C1267.144,833.423 1267.909,832.874 1268.663,832.169C1268.931,831.918 1269.203,831.641 1269.418,831.324C1269.52,831.172 1269.651,831.018 1269.629,830.819C1269.559,830.186 1268.963,829.605 1267.993,828.797C1263.423,824.989 1262.57,821.354 1263.469,818.862C1263.924,817.603 1264.826,816.421 1266.31,815.456C1267.455,814.713 1269.048,814.065 1271.089,813.59C1274.323,807.124 1274.835,802.825 1273.376,799.538C1271.776,795.934 1268.115,793.738 1264.387,791.34C1257.943,787.196 1251.25,782.733 1249.15,774.331C1248.244,770.708 1245.352,762.315 1241.156,755.162C1238.867,751.259 1236.24,747.68 1233.248,745.73Z" style="fill:rgb(61,51,71);"/>
                <path d="M1244.298,740.579C1256.405,704.258 1274.959,741.678 1282.304,744.126C1284.983,745.019 1300.329,750.135 1304.6,771.49C1306.2,779.486 1301.642,780.156 1302.574,792.267C1303.909,809.633 1288.893,796.83 1287.371,793.787C1279.704,778.453 1267.216,787.101 1265.074,769.97C1265.023,769.559 1255.334,752.628 1248.859,746.153C1247.845,745.14 1246.832,744.126 1245.818,743.113" style="fill:rgb(132,192,201);"/>
                <path d="M1261.82,770.955C1260.198,767.938 1252.103,754.144 1246.485,748.526L1243.445,745.486C1242.862,744.903 1242.539,744.159 1242.475,743.397C1241.219,742.586 1240.62,741 1241.114,739.517C1245.384,726.706 1250.954,722.192 1256.028,721.536C1261.212,720.866 1266.712,724.25 1271.572,728.946C1274.838,732.102 1277.867,735.75 1280.405,738.379C1281.598,739.615 1282.529,740.663 1283.365,740.942C1286.3,741.92 1303.213,747.439 1307.892,770.832C1308.67,774.723 1308.25,777.189 1307.538,779.689C1306.736,782.504 1305.41,785.374 1305.92,792.009C1306.487,799.376 1304.108,802.626 1301.652,803.838C1299.201,805.049 1295.809,804.543 1292.594,802.765C1288.713,800.619 1285.147,796.844 1284.369,795.288C1281.041,788.631 1276.585,787.275 1272.809,785.629C1270.168,784.477 1267.78,783.192 1265.846,780.959C1263.996,778.823 1262.505,775.792 1261.82,770.955ZM1247.884,740.467C1247.991,740.551 1248.094,740.641 1248.192,740.739L1251.232,743.78C1257.262,749.81 1266.016,764.581 1267.74,767.79C1267.974,768.226 1268.114,768.527 1268.169,768.661L1268.405,769.554C1268.814,772.829 1269.601,774.955 1270.793,776.413C1272.698,778.742 1275.429,779.398 1278.209,780.654C1282.409,782.551 1286.834,785.207 1290.373,792.286C1290.874,793.287 1293.346,795.51 1295.843,796.891C1296.46,797.232 1297.083,797.519 1297.687,797.692C1298.055,797.797 1298.394,797.961 1298.681,797.819C1298.997,797.663 1298.991,797.206 1299.109,796.621C1299.321,795.572 1299.358,794.225 1299.227,792.524C1298.713,785.838 1299.72,782.311 1300.629,779.35C1301.299,777.166 1301.961,775.406 1301.309,772.148C1297.446,752.83 1283.666,748.118 1281.242,747.31C1280.024,746.904 1278.518,745.895 1276.896,744.357C1274.152,741.754 1270.692,737.43 1266.907,733.773C1265.103,732.029 1263.228,730.439 1261.309,729.365C1259.837,728.54 1258.366,728.002 1256.889,728.193C1255.443,728.38 1254.088,729.3 1252.717,730.973C1251.012,733.054 1249.411,736.145 1247.884,740.467Z" style="fill:rgb(61,51,71);"/>
                <path d="M1092.782,1123.17C1112.826,1116.489 1125.789,1071.586 1137.882,1089.725C1145.304,1100.858 1187.099,1071.357 1189.57,1086.178C1192.342,1102.812 1199.443,1121.568 1149.03,1138.373C1124.287,1146.62 1104.609,1144.004 1104.437,1143.947C1099.147,1142.184 1087.118,1131.367 1096.836,1121.65" style="fill:rgb(132,192,201);"/>
                <path d="M1090.442,1125.577C1090.068,1125.214 1089.773,1124.76 1089.597,1124.232C1089.012,1122.474 1089.963,1120.572 1091.72,1119.986C1096.029,1118.55 1099.908,1115.056 1103.563,1110.93C1109.672,1104.034 1115.054,1095.336 1120.006,1089.554C1122.277,1086.902 1124.503,1084.823 1126.636,1083.586C1128.494,1082.51 1130.336,1082.012 1132.134,1082.092C1134.97,1082.219 1137.937,1083.758 1140.674,1087.864C1141.066,1088.451 1141.73,1088.683 1142.5,1088.82C1143.924,1089.074 1145.645,1088.928 1147.562,1088.589C1154.522,1087.359 1163.598,1083.523 1171.428,1081.032C1177.421,1079.125 1182.802,1078.076 1186.367,1078.838C1189.887,1079.59 1192.22,1081.664 1192.88,1085.626C1194.372,1094.578 1196.779,1104.097 1192.281,1113.643C1187.873,1122.994 1176.671,1132.697 1150.092,1141.557C1124.189,1150.191 1103.556,1147.191 1103.375,1147.131C1100.857,1146.292 1097.009,1143.792 1094.094,1140.278C1091.326,1136.941 1089.446,1132.745 1089.862,1128.378C1089.95,1127.455 1090.137,1126.519 1090.442,1125.577ZM1099.685,1123.426C1099.552,1123.638 1099.393,1123.839 1099.209,1124.024C1097.544,1125.688 1096.702,1127.36 1096.544,1129.014C1096.298,1131.603 1097.62,1134.014 1099.261,1135.992C1101.147,1138.266 1103.535,1140.012 1105.239,1140.669C1105.298,1140.677 1105.363,1140.684 1105.428,1140.691C1108.85,1141.07 1126.423,1142.371 1147.969,1135.189C1171.804,1127.244 1182.256,1119.167 1186.208,1110.781C1190.069,1102.588 1187.539,1094.413 1186.259,1086.73C1186.062,1085.546 1185.068,1085.318 1183.85,1085.279C1181.094,1085.191 1177.464,1086.156 1173.464,1087.429C1163.88,1090.478 1152.48,1095.315 1144.944,1095.636C1140.418,1095.829 1137.019,1094.481 1135.089,1091.587C1133.951,1089.88 1133.015,1088.851 1131.836,1088.799C1130.998,1088.761 1130.192,1089.219 1129.319,1089.835C1127.945,1090.805 1126.554,1092.229 1125.104,1093.921C1120.132,1099.726 1114.722,1108.456 1108.588,1115.381C1105.78,1118.55 1102.81,1121.343 1099.685,1123.426Z" style="fill:rgb(61,51,71);"/>
                <path d="M914.408,1132.292C952.15,1137.684 952.86,1139.237 988.899,1127.224C1004.079,1122.164 1020.348,1131.089 1032.986,1122.664C1048.248,1112.489 1073,1121.059 1051.229,1133.305C1033.134,1143.483 1031.443,1139.144 1012.716,1148.508C1010.689,1149.521 985.685,1156.93 983.325,1157.629C975.81,1159.856 933.124,1163.192 927.076,1161.176C913.813,1156.755 913.774,1157.312 901.232,1151.041C883.444,1142.147 882.221,1147.075 880.963,1145.974C880.751,1145.789 882.555,1122.181 914.408,1132.799" style="fill:rgb(132,192,201);"/>
                <path d="M913.627,1129.027C914.027,1128.931 914.451,1128.908 914.882,1128.969C951.845,1134.25 952.543,1135.805 987.838,1124.04C995.86,1121.366 1004.164,1122.282 1012.138,1122.858C1018.919,1123.348 1025.445,1123.657 1031.124,1119.871C1039.632,1114.199 1050.75,1113.781 1056.945,1116.332C1060.607,1117.84 1062.741,1120.399 1063.104,1123.261C1063.321,1124.976 1062.948,1126.916 1061.597,1128.977C1060.166,1131.161 1057.43,1133.668 1052.874,1136.231C1034.709,1146.449 1033.018,1142.109 1014.217,1151.51C1012.151,1152.543 986.684,1160.134 984.278,1160.847C978.912,1162.437 955.97,1164.637 940.568,1165.075C933.537,1165.275 927.987,1165.018 926.015,1164.36C912.525,1159.864 912.487,1160.421 899.731,1154.043C886.99,1147.673 883.945,1148.996 882.624,1149.336L881.134,1149.492L879.847,1149.188L878.752,1148.5L877.988,1147.529L877.616,1146.298C877.584,1146.008 877.584,1144.65 878.036,1142.74C878.857,1139.27 881.171,1133.544 887.06,1129.935C892.28,1126.735 900.554,1125.052 913.627,1129.027ZM915.748,1135.875C915.015,1136.195 914.165,1136.256 913.346,1135.983C903.066,1132.556 896.287,1132.868 891.817,1134.983C887.981,1136.798 886.066,1139.911 885.133,1142.397C888.525,1142.577 894.174,1143.76 902.733,1148.039C915.06,1154.202 915.102,1153.647 928.138,1157.992C929.795,1158.544 934.468,1158.533 940.377,1158.365C955.171,1157.944 977.217,1155.938 982.371,1154.411C984.687,1153.725 1009.227,1146.5 1011.215,1145.506C1029.869,1136.179 1031.56,1140.518 1049.583,1130.38C1052.393,1128.799 1054.333,1127.329 1055.504,1125.935C1056.097,1125.229 1056.516,1124.672 1056.444,1124.105C1056.399,1123.748 1056.077,1123.518 1055.735,1123.267C1054.893,1122.651 1053.724,1122.221 1052.373,1121.926C1047.482,1120.859 1040.438,1121.73 1034.848,1125.456C1027.888,1130.096 1019.963,1130.154 1011.654,1129.554C1004.539,1129.039 997.119,1128.022 989.96,1130.409C953.764,1142.474 952.487,1141.164 915.748,1135.875Z" style="fill:rgb(61,51,71);"/>
                <path d="M870.828,596.157C869.327,596.907 844.308,609.417 858.159,612.879C882.482,618.96 882.185,610.616 896.165,609.839C904.701,609.365 904.282,611.11 911.874,614.906C920.005,618.972 927.852,608.847 972.683,604.771C994.414,602.796 1005.946,602.846 1011.703,595.65C1015.174,591.311 1034.218,582.958 1021.331,574.367C1014.737,569.971 1010.441,564.165 980.284,565.752C977.878,565.879 978.374,568.112 950.893,572.34C949.528,572.55 928.02,579.623 949.88,583.995C958.392,585.697 961.927,576.222 969.136,587.035C969.558,587.668 970.057,587.4 970.801,592.61C928.961,592.61 927.103,586.981 929.103,582.981C929.894,581.399 932.148,581.869 930.624,580.955C910.573,568.924 894.654,584.161 878.429,589.569C874.963,590.725 874.98,590.484 872.348,593.116" style="fill:rgb(132,192,201);"/>
                <path d="M868.998,593.32C868.943,592.394 869.268,591.45 869.975,590.743C873.184,587.534 873.142,587.794 877.368,586.385C885.465,583.686 893.484,578.53 901.982,575.555C911.375,572.266 921.291,571.441 932.35,578.076L933.48,578.945L934.191,579.994L934.496,581.324L934.429,582.109L934.202,582.827L933.495,583.87C933.314,584.055 932.487,584.522 932.018,584.78C932.158,584.903 932.388,585.096 932.601,585.224C933.124,585.54 933.791,585.837 934.622,586.128C939.527,587.846 949.024,589.069 966.609,589.234L966.343,588.897C964.853,586.662 963.774,585.489 962.578,585.184C961.507,584.912 960.527,585.423 959.431,585.831C956.554,586.904 953.362,588.114 949.222,587.286C944.741,586.39 941.883,585.329 940.18,584.298C938.235,583.118 937.352,581.764 936.988,580.562L936.798,579.632L936.781,578.698L937.184,577.023C937.63,575.945 938.511,574.829 939.765,573.836C943.131,571.17 949.599,569.143 950.383,569.023C971.808,565.726 975.791,563.704 977.725,562.952C978.603,562.61 979.256,562.445 980.108,562.4C1011.781,560.733 1016.267,566.957 1023.192,571.574C1027.744,574.608 1029.146,577.843 1029.107,580.751C1029.07,583.573 1027.519,586.398 1025.063,588.937C1022.789,591.287 1019.75,593.452 1017.275,595.29C1016,596.237 1014.891,597.038 1014.323,597.747C1011.597,601.154 1007.833,603.284 1002.584,604.649C995.809,606.411 986.27,606.907 972.987,608.114C941.875,610.942 928.733,616.727 920.881,618.55C916.552,619.555 913.483,619.464 910.373,617.908C903.568,614.506 904.002,612.765 896.351,613.19C891.204,613.476 888.17,614.917 884.937,616.136C879.256,618.279 873.078,620.069 857.345,616.136C853.174,615.093 851.455,613.068 850.889,611.248L850.664,610.12L850.667,609.023C850.752,608.145 851.041,607.213 851.562,606.266C852.546,604.474 854.546,602.469 856.989,600.611C861.465,597.206 867.414,594.122 868.998,593.32ZM874.177,595.931C874.264,597.24 873.575,598.536 872.329,599.159C871.613,599.517 865.286,602.669 860.793,606.153C859.791,606.931 858.885,607.719 858.19,608.498C858.021,608.688 857.841,608.94 857.69,609.168C858.047,609.324 858.52,609.51 858.973,609.623C872.428,612.987 877.71,611.688 882.568,609.855C886.36,608.425 889.941,606.823 895.979,606.488C905.401,605.964 904.995,607.714 913.375,611.904C915.973,613.203 918.509,612.34 922.94,611.047C931.368,608.586 945.13,603.906 972.379,601.429C983.121,600.452 991.343,599.986 997.59,598.865C1002.92,597.908 1006.654,596.588 1009.082,593.553C1010.855,591.336 1016.576,588.055 1020.239,584.269C1021.369,583.101 1022.378,581.961 1022.395,580.662C1022.411,579.446 1021.371,578.428 1019.469,577.16C1013.207,572.985 1009.101,567.597 980.461,569.104C980.079,569.124 979.864,569.328 979.317,569.547C976.844,570.539 971.186,572.61 951.494,575.643C951.494,575.643 948.271,576.654 946.081,577.776C945.526,578.06 944.871,578.508 944.342,578.894C944.557,579.004 944.784,579.111 945.007,579.199C946.35,579.73 948.163,580.229 950.538,580.704C952.411,581.078 953.95,580.663 955.337,580.185C956.661,579.729 957.888,579.206 959.085,578.868C960.805,578.383 962.488,578.235 964.234,578.679C966.488,579.253 969.039,580.883 971.843,585.045C972.019,585.181 973.296,586.344 974.124,592.135C974.261,593.098 973.974,594.074 973.337,594.809C972.699,595.544 971.774,595.966 970.801,595.966C944.586,595.966 933.435,593.567 929.133,590.972C926.699,589.504 925.732,587.806 925.382,586.26C925.069,584.878 925.263,583.49 925.783,582.188C916.166,577.797 907.581,580.207 899.387,583.808C892.614,586.785 886.074,590.559 879.49,592.753C876.783,593.656 876.777,593.434 874.721,595.49C874.552,595.659 874.37,595.806 874.177,595.931Z" style="fill:rgb(61,51,71);"/>
                <path d="M1131.801,702.573C1130.791,702.91 1125.167,704.784 1123.186,712.708C1122.237,716.504 1131.908,719.189 1134.335,716.762C1138.403,712.694 1146.902,713.417 1149.537,708.147C1156.125,694.972 1131.391,701.155 1129.774,701.56" style="fill:rgb(132,192,201);"/>
                <path d="M1126.417,701.614C1126.392,700.088 1127.417,698.689 1128.96,698.303C1130.013,698.04 1140.112,695.6 1146.471,696.714C1149.55,697.254 1151.877,698.639 1153.064,700.67C1154.228,702.66 1154.576,705.574 1152.539,709.648C1151.107,712.511 1148.518,714.218 1145.432,715.414C1143.715,716.079 1141.841,716.593 1140.088,717.248C1138.816,717.722 1137.6,718.243 1136.708,719.135C1135.839,720.005 1134.553,720.656 1132.957,720.913C1130.507,721.306 1127.118,720.742 1124.541,719.495C1120.994,717.781 1119.212,714.765 1119.93,711.894C1121.277,706.505 1124.012,703.394 1126.417,701.614ZM1134.895,703.873C1134.533,704.733 1133.816,705.439 1132.862,705.757C1132.127,706.002 1128.253,707.408 1126.624,712.858C1127.225,713.199 1128.677,713.981 1129.717,714.179C1130.549,714.338 1131.856,714.24 1132.138,714.216C1134.518,711.952 1138.03,710.847 1141.413,709.72C1143.491,709.029 1145.611,708.494 1146.535,706.646C1146.897,705.921 1147.14,705.287 1147.246,704.724C1147.297,704.451 1147.369,704.229 1147.269,704.058C1147.161,703.873 1146.933,703.806 1146.707,703.71C1146.295,703.534 1145.822,703.416 1145.312,703.326C1142.196,702.78 1138.017,703.3 1134.895,703.873Z" style="fill:rgb(61,51,71);"/>
                <path d="M1161.699,710.681C1159.606,719.052 1157.886,721.763 1166.259,723.856C1166.785,723.988 1181.99,714.435 1163.219,710.681" style="fill:rgb(132,192,201);"/>
                <path d="M1162.458,707.412C1162.91,707.306 1163.392,707.293 1163.877,707.39C1171.163,708.847 1174.214,711.505 1175.287,713.771C1176.175,715.648 1176.104,717.587 1175.342,719.448C1174.548,721.385 1172.874,723.251 1171.224,724.615C1169.486,726.053 1167.777,726.915 1167.315,727.056L1166.408,727.211L1165.445,727.112C1160.745,725.937 1158.529,724.24 1157.489,722.334C1156.743,720.969 1156.475,719.367 1156.702,717.376C1156.918,715.486 1157.644,713.063 1158.443,709.867C1158.887,708.088 1160.679,706.998 1162.458,707.412ZM1164.214,714.341C1163.906,715.505 1163.645,716.525 1163.48,717.427C1163.351,718.132 1163.139,718.676 1163.38,719.116C1163.535,719.401 1163.897,719.518 1164.35,719.721C1164.782,719.915 1165.281,720.094 1165.853,720.267C1166.482,719.841 1167.281,719.217 1167.988,718.482C1168.331,718.126 1168.653,717.743 1168.903,717.338C1169.053,717.095 1169.24,716.871 1169.213,716.614C1169.197,716.461 1169.02,716.386 1168.847,716.245C1168.576,716.022 1168.238,715.813 1167.833,715.607C1166.913,715.137 1165.721,714.716 1164.214,714.341Z" style="fill:rgb(61,51,71);"/>
                <path d="M1137.375,724.87C1136.271,727.077 1139.253,739.207 1148.017,730.444C1153.564,724.897 1147.818,725.178 1145.99,723.35C1142.425,719.785 1136.887,723.343 1136.868,723.35" style="fill:rgb(132,192,201);"/>
                <path d="M1135.129,720.478C1135.129,720.478 1135.228,720.418 1135.343,720.351C1135.957,719.994 1137.83,718.989 1140.07,718.588C1142.758,718.107 1145.857,718.47 1148.363,720.976C1148.651,721.264 1149.171,721.358 1149.615,721.559C1150.456,721.939 1151.246,722.367 1151.849,722.865L1152.547,723.55L1153.188,724.498L1153.62,725.693L1153.723,726.981C1153.657,728.268 1152.974,730.234 1150.39,732.817C1146.611,736.597 1143.388,737.254 1141.039,736.823C1137.994,736.264 1135.736,733.671 1134.638,730.664C1133.898,728.639 1133.764,726.525 1133.949,725.007C1133.843,724.821 1133.754,724.622 1133.684,724.411C1133.179,722.895 1133.817,721.272 1135.129,720.478ZM1140.702,725.32C1140.669,725.559 1140.611,725.797 1140.525,726.031C1140.541,726.286 1140.625,727.409 1140.866,728.14C1141.116,728.899 1141.444,729.71 1142.064,730.134C1142.299,730.295 1142.598,730.221 1142.969,730.069C1143.767,729.74 1144.637,729.077 1145.643,728.071C1145.852,727.862 1146.058,727.63 1146.246,727.406C1146.163,727.367 1146.085,727.331 1146.014,727.298C1145.077,726.86 1144.231,726.337 1143.616,725.723C1142.801,724.908 1141.729,725.069 1140.891,725.272C1140.827,725.288 1140.764,725.304 1140.702,725.32Z" style="fill:rgb(61,51,71);"/>
                <path d="M1124.706,724.87C1115.402,734.174 1127.563,733.668 1128.76,732.471C1133.536,727.695 1128.725,727.875 1126.733,725.883" style="fill:rgb(132,192,201);"/>
                <path d="M1127.133,722.551C1127.855,722.637 1128.554,722.957 1129.107,723.51C1129.458,723.861 1129.991,724.041 1130.446,724.276C1131.22,724.675 1131.926,725.101 1132.459,725.574L1133.365,726.604L1133.867,727.579L1134.113,728.53L1134.156,729.51C1134.087,730.707 1133.471,732.507 1131.134,734.844L1129.995,735.651L1128.68,736.125C1127.28,736.482 1125.06,736.625 1123.157,736.222C1121.706,735.915 1120.434,735.288 1119.542,734.431L1118.511,733.078L1117.936,731.355C1117.653,729.532 1118.331,726.498 1122.333,722.496C1123.643,721.187 1125.77,721.187 1127.08,722.496C1127.098,722.515 1127.116,722.533 1127.133,722.551ZM1125.47,729.164C1125.372,729.302 1125.281,729.434 1125.197,729.557L1126.126,729.578C1125.902,729.447 1125.682,729.309 1125.47,729.164Z" style="fill:rgb(61,51,71);"/>
                <path d="M1125.72,685.344C1117.727,689.34 1134.38,695.85 1135.348,692.945C1138.274,684.166 1127.886,683.363 1126.227,682.81" style="fill:rgb(132,192,201);"/>
                <path d="M1122.885,683.134C1122.841,682.68 1122.889,682.209 1123.043,681.749C1123.628,679.991 1125.531,679.04 1127.288,679.626C1127.974,679.855 1130.099,680.138 1132.214,680.96C1134.888,682 1137.421,683.81 1138.568,686.631C1139.337,688.522 1139.558,690.929 1138.532,694.006L1137.845,695.273L1136.885,696.154L1135.736,696.715L1134.235,697.004C1132.126,697.159 1128.493,696.25 1125.586,694.689C1123.984,693.829 1122.608,692.778 1121.717,691.709C1121.203,691.091 1120.824,690.45 1120.577,689.814L1120.208,688.135L1120.357,686.582L1120.96,685.143C1121.358,684.48 1121.967,683.784 1122.885,683.134ZM1128.719,686.85C1128.495,687.297 1128.17,687.697 1127.757,688.012C1128.517,688.531 1129.599,689.217 1130.444,689.543C1131.066,689.782 1131.862,689.97 1132.517,690.1C1132.518,689.754 1132.465,689.442 1132.35,689.16C1131.916,688.093 1130.792,687.61 1129.781,687.216C1129.425,687.078 1129.068,686.957 1128.719,686.85Z" style="fill:rgb(61,51,71);"/>
                <path d="M1101.903,708.654C1099.661,713.137 1087.951,717.179 1097.342,720.309C1103.591,722.392 1102.858,719.354 1107.477,714.735C1107.842,714.37 1108.997,713.215 1102.916,710.174" style="fill:rgb(132,192,201);"/>
                <path d="M1105.053,707.497C1107.816,708.94 1109.196,710.095 1109.889,710.901L1110.863,712.487L1111.126,713.499L1111.133,714.578L1110.786,715.793L1109.85,717.108C1108.101,718.858 1107.173,720.378 1106.298,721.434C1105.344,722.584 1104.378,723.37 1103.215,723.842C1101.692,724.461 1099.655,724.618 1096.281,723.493C1093.312,722.504 1091.836,721.203 1091.149,720.105L1090.58,718.836L1090.389,717.449L1090.633,715.94L1091.478,714.245C1092.4,712.903 1094.212,711.427 1096.046,709.946C1097.191,709.021 1098.405,708.146 1098.901,707.153C1099.729,705.496 1101.747,704.823 1103.404,705.652C1104.2,706.05 1104.768,706.722 1105.053,707.497ZM1102.135,713.555C1101.545,714.105 1100.911,714.645 1100.263,715.168C1099.491,715.791 1098.711,716.398 1098.04,716.991C1098.162,717.04 1098.284,717.085 1098.404,717.125C1099.014,717.328 1099.537,717.474 1099.994,717.557C1100.296,717.612 1100.495,717.739 1100.66,717.637C1101.075,717.379 1101.341,716.896 1101.749,716.354C1102.212,715.737 1102.727,715.041 1103.357,714.282C1102.996,714.052 1102.582,713.803 1102.135,713.555Z" style="fill:rgb(61,51,71);"/>
            </g>
        </g>
        <circle cx="1074.494" cy="848.495" r="309.728" style="fill:none;stroke:rgb(61,51,71);stroke-width:10.6px;"/>
    </g>
    <g transform="matrix(1.179343,0,0,1.179343,-285.648139,-93.031472)">
        <circle cx="1338.7" cy="523.593" r="77.655" style="fill:rgb(238,18,121);stroke:rgb(61,51,71);stroke-width:8.92px;"/>
    </g>
</svg>
